<svg xmlns="http://www.w3.org/2000/svg" width="512" height="512" style="shape-rendering:geometricPrecision;text-rendering:geometricPrecision;image-rendering:optimizeQuality;fill-rule:evenodd;clip-rule:evenodd"><path fill="#3a3e1b" d="M394.5 45.5c12.64-.06 23.64 4.1 33 12.5l12 14c11.02-1 22.02-.67 33 1 13.27 1.87 23.43 8.37 30.5 19.5 3.84 10 2.5 19.33-4 28a170.73 170.73 0 0 1-21 23 67.2 67.2 0 0 1-9 26 161.02 161.02 0 0 1-48.5 41.5 399.46 399.46 0 0 1-52 24.5 19.9 19.9 0 0 0-4.5 11 72.47 72.47 0 0 1 22 23 58.6 58.6 0 0 1 30.5-6c6.38-.01 12.71.49 19 1.5 7.65 4.44 7.98 9.44 1 15a35.14 35.14 0 0 0-10 5 40.6 40.6 0 0 1 13.5 8.5c2.2 5.7.38 9.53-5.5 11.5-6.7.17-13.36.67-20 1.5a90.69 90.69 0 0 1 5.5 16c1.46 6.43-1.04 10.1-7.5 11a22.41 22.41 0 0 1-8-2.5 170.43 170.43 0 0 1-32-30 103.03 103.03 0 0 1-32.5-6.5 360.86 360.86 0 0 0-16 45 42.09 42.09 0 0 0-1 16 3863.38 3863.38 0 0 1 49.5 32.5c16.64-.3 32.97 1.7 49 6 8.31 2.6 12.14 8.1 11.5 16.5l-3.5 3.5c-5.9 1.8-11.9 3.14-18 4a76.95 76.95 0 0 1 11.5 17.5c1.67 6.5-.83 10.16-7.5 11a392.62 392.62 0 0 1-24-7.5c.09 6.63-.08 13.46-.5 20.5-4.55 7.6-9.89 7.94-16 1-7-14.18-14.18-28.35-21.5-42.5a308.36 308.36 0 0 1-37-7c-21.2-4.87-35.03-17.7-41.5-38.5a211.5 211.5 0 0 1-6.5-52 108.6 108.6 0 0 1-45 9c-22.78-.6-44.94-4.6-66.5-12-.77.14-1.44.48-2 1a62.04 62.04 0 0 1-18.5 33.5c-12.48 8.8-25.48 9.63-39 2.5a226.8 226.8 0 0 0-5 20.5 115.13 115.13 0 0 1 40 21 85.36 85.36 0 0 1 10.5 11.5c3.37 8.6.54 13.6-8.5 15a190.51 190.51 0 0 1-23-5l-2 1a160.24 160.24 0 0 1 11.5 21c.62 8.38-3.21 11.88-11.5 10.5a15.39 15.39 0 0 1-6-3A134.76 134.76 0 0 1 84 427.5l-10 24c-3.07 4.2-6.9 5.04-11.5 2.5a20.85 20.85 0 0 1-4.5-10.5 235.3 235.3 0 0 1-4-76 2293.79 2293.79 0 0 0-34-87 229.65 229.65 0 0 1-14-52c-2.58-33.42 12.92-48.92 46.5-46.5 5.4.95 10.23 3.12 14.5 6.5 33.24-35.54 73.4-59.7 120.5-72.5 44.53-4.9 88.2-13.9 131-27a183.58 183.58 0 0 0 40-19 86.26 86.26 0 0 1 27-22c3.18-.66 6.18-1.5 9-2.5Z" style="opacity:.963"/><path fill="#8db367" d="M485.5 121.5c5.6-10.88 3.6-20.04-6-27.5a54.47 54.47 0 0 0-19-7c-9.32-.94-18.65-1.78-28-2.5-16.24-19.18-34.9-22.01-56-8.5a327.07 327.07 0 0 1-74 39 377.08 377.08 0 0 1-60 12 1074.73 1074.73 0 0 0-135 38.5c26.1-21.12 55.77-35.28 89-42.5a565.31 565.31 0 0 0 137-30 165.9 165.9 0 0 0 28-14 79.88 79.88 0 0 0 15-15c17.47-13.74 33.63-12.24 48.5 4.5a90.9 90.9 0 0 1 9.5 12.5c14.09-1.3 28.09-.63 42 2 22.72 8.53 25.72 21.37 9 38.5Z" style="opacity:1"/><path fill="#75a843" d="M485.5 121.5a88.2 88.2 0 0 1-13 14.5 571.7 571.7 0 0 1-81 57 9.09 9.09 0 0 0-1 5.5 143.3 143.3 0 0 0-27.5 20c-3.21 3.31-4.04 6.98-2.5 11a632.75 632.75 0 0 0-46.5 112 64.22 64.22 0 0 0 0 16 14.02 14.02 0 0 0 5.5 7.5 487.33 487.33 0 0 1 50 32c13.73.25 27.4 1.25 41 3 17.62 5.27 17.29 7.94-1 8-6.6 1.25-9.1 5.08-7.5 11.5a141.4 141.4 0 0 0 11.5 16.5 95.15 95.15 0 0 1-18-6 14.12 14.12 0 0 0-11 1.5 65.54 65.54 0 0 0-15-27.5c-13.04-3.18-26.04-6.5-39-10-15.14-5.8-25.64-16.3-31.5-31.5a88.45 88.45 0 0 1-6-46 474.93 474.93 0 0 1 14.5-72 32.3 32.3 0 0 1 6.5-10c1.33-5-.5-7.16-5.5-6.5a287.82 287.82 0 0 0-9 11.5c-42.1 22.68-86.77 30.18-134 22.5a265.03 265.03 0 0 1-22-5.5c-1.25-4.1-3.91-5.94-8-5.5a3.97 3.97 0 0 0-2 3.5 108.41 108.41 0 0 1 14 50c.18 4.52-.49 8.85-2 13-22.43 14.32-42.6 11.65-60.5-8a167.03 167.03 0 0 1-31-59c-2.5-16.5-7.5-32.17-15-47-2.67-3.5-5.5-6.83-8.5-10 16.66-6.61 30.16-2.61 40.5 12a198.36 198.36 0 0 1 27 69 925.2 925.2 0 0 0 5.5 26.5c6.5.81 8.67-2.02 6.5-8.5a250.82 250.82 0 0 0-28-86 53.58 53.58 0 0 0-8.5-11 144.93 144.93 0 0 1 34-30 1074.73 1074.73 0 0 1 135-38.5 377.08 377.08 0 0 0 60-12 327.07 327.07 0 0 0 74-39c21.1-13.51 39.76-10.68 56 8.5 9.35.72 18.68 1.56 28 2.5a54.47 54.47 0 0 1 19 7c9.6 7.46 11.6 16.62 6 27.5Z" style="opacity:1"/><path fill="#3d401b" d="M389.5 94.5c17.2-1.35 30.04 5.32 38.5 20 4.8 25.26-5.36 41.42-30.5 48.5-22.88 3.8-36.72-5.7-41.5-28.5-1.74-16.35 4.76-28.18 19.5-35.5a68.2 68.2 0 0 1 14-4.5Z" style="opacity:1"/><path fill="#f8c324" d="M386.5 103.5c11.26-2.12 21.1.55 29.5 8 9.42 15.43 6.59 28.27-8.5 38.5-10.75 6.32-21.75 6.98-33 2-11.23-10.65-13.4-22.82-6.5-36.5a37.6 37.6 0 0 1 18.5-12Z" style="opacity:1"/><path fill="#20220f" d="M395.5 116.5c7.36-1.3 13.53.7 18.5 6 .65 3.1.32 6.1-1 9-10.63 11.21-23.46 15.38-38.5 12.5-2.5-4.32-2.66-8.82-.5-13.5a44.3 44.3 0 0 1 21.5-14Z" style="opacity:1"/><path fill="#dfd09d" d="M360.5 229.5c-1.54-4.02-.71-7.69 2.5-11a143.3 143.3 0 0 1 27.5-20 7.15 7.15 0 0 0 4 2 633.96 633.96 0 0 0 71.5-48 18.1 18.1 0 0 1-3 9 121.1 121.1 0 0 1-40.5 37.5 534.04 534.04 0 0 1-62 30.5Z" style="opacity:1"/><path fill="#589541" d="M30.5 193.5c3 3.17 5.83 6.5 8.5 10 7.5 14.83 12.5 30.5 15 47a167.03 167.03 0 0 0 31 59c17.9 19.65 38.07 22.32 60.5 8-2.3 13.1-8.96 23.27-20 30.5a45.7 45.7 0 0 1-18 1A83.74 83.74 0 0 1 75 320.5a321.5 321.5 0 0 1-39-95c-2.67-2.67-5.33-2.67-8 0a295.54 295.54 0 0 0 41 101 202.41 202.41 0 0 0 19.5 22 296.51 296.51 0 0 0-5.5 35c2.69 2.29 5.69 2.62 9 1a90.16 90.16 0 0 1 43.5 28l-2.5 1a107.56 107.56 0 0 0-29.5-4.5c-4.35 3.74-5.18 8.24-2.5 13.5 3.7 5.53 7.2 11.2 10.5 17l-1 1a99.86 99.86 0 0 1-19-18.5l-6-4c-3.53-.66-6.36.5-8.5 3.5a206.02 206.02 0 0 0-9 21 44.8 44.8 0 0 1-3-11c-.67-8.37-1.67-16.7-3-25-.69-13.73-.35-27.4 1-41a2293.79 2293.79 0 0 0-34-87 249.93 249.93 0 0 1-14-52c-3.13-15.18 2.03-26.18 15.5-33Z" style="opacity:1"/><path fill="#599742" d="M299.5 239.5a177.27 177.27 0 0 0-19 35 357.34 357.34 0 0 1-59 18.5 268.03 268.03 0 0 1-66 2.5 101.73 101.73 0 0 0-12-39 265.03 265.03 0 0 0 22 5.5c47.23 7.68 91.9.18 134-22.5Z" style="opacity:1"/><path fill="#589541" d="M307.5 244.5a474.93 474.93 0 0 0-14.5 72 88.45 88.45 0 0 0 6 46c5.86 15.2 16.36 25.7 31.5 31.5 12.96 3.5 25.96 6.82 39 10a65.54 65.54 0 0 1 15 27.5 4.3 4.3 0 0 1-1.5 2l-1 20-22.5-43.5a204.3 204.3 0 0 1-55-13 41.77 41.77 0 0 1-18.5-21.5 131.57 131.57 0 0 1-7-57c1.75-27.76 11.25-52.43 28.5-74ZM357.5 254.5c2.28.1 4.28.94 6 2.5a79.2 79.2 0 0 1 18 23c1.33.67 2.67.67 4 0a42.57 42.57 0 0 1 18-7c8.33-.67 16.67-.67 25 0-19.94 7.38-19.94 15.05 0 23l-20 1c-3.5 1.86-4.67 4.7-3.5 8.5a174.9 174.9 0 0 0 5 14 4.25 4.25 0 0 1 0 4 175.95 175.95 0 0 1-32.5-30.5 115.14 115.14 0 0 1-33.5-6.5 9.87 9.87 0 0 1 1-5l12.5-27Z" style="opacity:1"/><path fill="#e0d19d" d="M280.5 274.5a91.86 91.86 0 0 0-9 34c-20.06 10.71-41.4 14.55-64 11.5a276.49 276.49 0 0 1-51.5-12.5c-.5-3.99-.67-7.99-.5-12 22.1 1.89 44.1 1.05 66-2.5a357.34 357.34 0 0 0 59-18.5Z" style="opacity:1"/></svg>